<svg width="114" height="30" viewBox="0 0 114 30" fill="none" xmlns="http://www.w3.org/2000/svg">
<path d="M17.96 27.76L0.0400002 19.32V14.32L17.96 5.88V10.48L6.36 15.84C5.82667 16.08 5.29333 16.2933 4.76 16.48C4.25333 16.64 3.85333 16.7467 3.56 16.8C3.85333 16.8533 4.26667 16.96 4.8 17.12C5.33333 17.28 5.85333 17.48 6.36 17.72L17.96 23.08V27.76ZM25.8244 30V0.799999H30.8244V25.48H43.2244V30H25.8244ZM48.0088 30V0.799999H53.0088V12.72H56.4488L62.0088 0.799999H67.4088L60.8488 14.72L67.7288 30H62.1688L56.4088 17.08H53.0088V30H48.0088ZM70.3531 30L77.7131 0.799999H84.1531L91.5531 30H86.4331L84.8331 22.92H77.0731L75.4731 30H70.3531ZM77.9931 18.84H83.9131L82.1531 11C81.8598 9.69333 81.6065 8.52 81.3931 7.48C81.1798 6.41333 81.0331 5.64 80.9531 5.16C80.8731 5.64 80.7265 6.41333 80.5131 7.48C80.2998 8.52 80.0465 9.68 79.7531 10.96L77.9931 18.84ZM95.9775 27.76V23.16L107.578 17.8C108.111 17.56 108.631 17.36 109.138 17.2C109.671 17.04 110.084 16.92 110.378 16.84C110.084 16.7867 109.671 16.68 109.138 16.52C108.604 16.36 108.084 16.1733 107.578 15.96L95.9775 10.56V5.88L113.898 14.32V19.32L95.9775 27.76Z" fill="white"/>
</svg>
